# Blender v2.81 (sub 16) OBJ File: 'Drone.blend'
# www.blender.org
mtllib DroneBody.mtl
o Cube
v -0.574663 3.825479 2.220437
v -0.972830 2.094666 2.225311
v -0.628852 3.825479 -2.205702
v -1.027020 2.729327 -2.200827
v 0.634891 3.828456 2.205628
v 1.027020 2.094666 2.200827
v 0.580702 3.828456 -2.220510
v 0.972830 2.729327 -2.225311
v 0.972874 2.381649 -2.221766
v 0.972874 2.742959 -2.221766
v 0.738392 1.309725 2.201914
v 1.026990 2.100245 2.198380
v -1.026976 2.381649 -2.197282
v -1.026976 2.742959 -2.197282
v -0.667371 1.303482 2.219125
v -0.972860 2.100245 2.222865
v -0.561430 2.745515 0.138403
v -0.561430 3.328082 0.138403
v -0.555356 2.745515 0.634565
v -0.555356 3.328082 0.634565
v -1.350036 2.745515 0.148058
v -1.350036 3.116285 0.148058
v -1.343961 2.745515 0.644220
v -1.343961 3.116285 0.644220
v -1.303699 2.591005 -0.067837
v -1.303699 3.207381 -0.067837
v -1.291213 2.591005 0.952034
v -1.291213 3.207381 0.952034
v -1.854385 2.591005 -0.061095
v -1.854385 3.207381 -0.061095
v -1.841898 2.591005 0.958776
v -1.841898 3.207381 0.958776
v 0.224673 1.332940 -0.543268
v 0.224673 2.304303 -0.543268
v 0.235447 1.332940 0.336802
v 0.235447 2.304303 0.336802
v -0.237906 1.332940 -0.537604
v -0.237906 2.304303 -0.537604
v -0.227131 1.332940 0.342465
v -0.227131 2.304303 0.342465
v 0.628852 3.825479 2.205702
v 1.027020 2.094666 2.200827
v 0.574663 3.825479 -2.220437
v 0.972830 2.729327 -2.225311
v -0.580702 3.828456 2.220510
v -0.972830 2.094666 2.225311
v -0.634891 3.828456 -2.205628
v -1.027020 2.729327 -2.200827
v -1.026976 2.381649 -2.197282
v -1.026976 2.742959 -2.197282
v -0.684263 1.309725 2.219331
v -0.972860 2.100245 2.222865
v 0.972874 2.381649 -2.221766
v 0.972874 2.742959 -2.221766
v 0.721500 1.303482 2.202121
v 1.026990 2.100245 2.198380
v 0.564651 2.745515 0.124616
v 0.564651 3.328082 0.124616
v 0.570725 2.745515 0.620778
v 0.570725 3.328082 0.620778
v 1.353256 2.745515 0.114961
v 1.353256 3.116285 0.114961
v 1.359330 2.745515 0.611123
v 1.359330 3.116285 0.611123
v 1.301647 2.591005 -0.099735
v 1.301647 3.207381 -0.099735
v 1.314134 2.591005 0.920136
v 1.314134 3.207381 0.920136
v 1.852333 2.591005 -0.106477
v 1.852333 3.207381 -0.106477
v 1.864819 2.591005 0.913394
v 1.864819 3.207381 0.913394
v -0.237906 1.332940 -0.537604
v -0.237906 2.304303 -0.537604
v -0.227131 1.332940 0.342465
v -0.227131 2.304303 0.342465
v 0.224673 1.332940 -0.543268
v 0.224673 2.304303 -0.543268
v 0.235447 1.332940 0.336802
v 0.235447 2.304303 0.336802
vt 0.625000 0.500000
vt 0.875000 0.500000
vt 0.875000 0.750000
vt 0.625000 0.750000
vt 0.375000 0.750000
vt 0.625000 1.000000
vt 0.375000 1.000000
vt 0.375000 0.000000
vt 0.625000 0.000000
vt 0.625000 0.250000
vt 0.375000 0.250000
vt 0.125000 0.500000
vt 0.375000 0.500000
vt 0.125000 0.750000
vt 0.375000 0.000000
vt 0.625000 0.000000
vt 0.625000 0.250000
vt 0.375000 0.250000
vt 0.625000 0.500000
vt 0.375000 0.500000
vt 0.625000 0.750000
vt 0.375000 0.750000
vt 0.625000 1.000000
vt 0.375000 1.000000
vt 0.125000 0.500000
vt 0.125000 0.750000
vt 0.875000 0.500000
vt 0.875000 0.750000
vt 0.375000 0.000000
vt 0.625000 0.000000
vt 0.625000 0.250000
vt 0.375000 0.250000
vt 0.625000 0.500000
vt 0.375000 0.500000
vt 0.625000 0.750000
vt 0.375000 0.750000
vt 0.625000 1.000000
vt 0.375000 1.000000
vt 0.125000 0.500000
vt 0.125000 0.750000
vt 0.875000 0.500000
vt 0.875000 0.750000
vt 0.375000 0.000000
vt 0.625000 0.000000
vt 0.625000 0.250000
vt 0.375000 0.250000
vt 0.625000 0.500000
vt 0.375000 0.500000
vt 0.625000 0.750000
vt 0.375000 0.750000
vt 0.625000 1.000000
vt 0.375000 1.000000
vt 0.125000 0.500000
vt 0.125000 0.750000
vt 0.875000 0.500000
vt 0.875000 0.750000
vt 0.375000 0.000000
vt 0.625000 0.000000
vt 0.625000 0.250000
vt 0.375000 0.250000
vt 0.625000 0.500000
vt 0.375000 0.500000
vt 0.625000 0.750000
vt 0.375000 0.750000
vt 0.625000 1.000000
vt 0.375000 1.000000
vt 0.125000 0.500000
vt 0.125000 0.750000
vt 0.875000 0.500000
vt 0.875000 0.750000
vt 0.625000 0.500000
vt 0.625000 0.750000
vt 0.875000 0.750000
vt 0.875000 0.500000
vt 0.375000 0.750000
vt 0.375000 1.000000
vt 0.625000 1.000000
vt 0.375000 0.000000
vt 0.375000 0.250000
vt 0.625000 0.250000
vt 0.625000 0.000000
vt 0.125000 0.500000
vt 0.125000 0.750000
vt 0.375000 0.500000
vt 0.375000 0.000000
vt 0.375000 0.250000
vt 0.625000 0.250000
vt 0.625000 0.000000
vt 0.375000 0.500000
vt 0.625000 0.500000
vt 0.375000 0.750000
vt 0.625000 0.750000
vt 0.375000 1.000000
vt 0.625000 1.000000
vt 0.125000 0.500000
vt 0.125000 0.750000
vt 0.875000 0.750000
vt 0.875000 0.500000
vt 0.375000 0.000000
vt 0.375000 0.250000
vt 0.625000 0.250000
vt 0.625000 0.000000
vt 0.375000 0.500000
vt 0.625000 0.500000
vt 0.375000 0.750000
vt 0.625000 0.750000
vt 0.375000 1.000000
vt 0.625000 1.000000
vt 0.125000 0.500000
vt 0.125000 0.750000
vt 0.875000 0.750000
vt 0.875000 0.500000
vt 0.375000 0.000000
vt 0.375000 0.250000
vt 0.625000 0.250000
vt 0.625000 0.000000
vt 0.375000 0.500000
vt 0.625000 0.500000
vt 0.375000 0.750000
vt 0.625000 0.750000
vt 0.375000 1.000000
vt 0.625000 1.000000
vt 0.125000 0.500000
vt 0.125000 0.750000
vt 0.875000 0.750000
vt 0.875000 0.500000
vt 0.375000 0.000000
vt 0.375000 0.250000
vt 0.625000 0.250000
vt 0.625000 0.000000
vt 0.375000 0.500000
vt 0.625000 0.500000
vt 0.375000 0.750000
vt 0.625000 0.750000
vt 0.375000 1.000000
vt 0.625000 1.000000
vt 0.125000 0.500000
vt 0.125000 0.750000
vt 0.875000 0.750000
vt 0.875000 0.500000
vn -0.0025 1.0000 0.0000
vn -0.0122 0.0000 -0.9999
vn 0.9637 0.2668 0.0073
vn -0.0017 -0.9899 -0.1419
vn -0.9620 0.2711 0.0312
vn 0.0122 -0.0000 0.9999
vn 0.9696 -0.2430 -0.0273
vn -0.9669 -0.2550 -0.0044
vn -0.0011 -0.9717 -0.2363
vn 0.0018 0.9896 0.1439
vn 0.9999 0.0000 -0.0122
vn -0.9999 0.0000 0.0122
vn 0.0000 -1.0000 0.0000
vn -0.2593 0.9658 0.0032
vn 0.0000 1.0000 0.0000
vn 0.0025 1.0000 -0.0000
vn -0.9633 0.2668 0.0309
vn 0.9625 0.2711 0.0077
vn -0.9700 -0.2430 -0.0036
vn 0.9665 -0.2550 -0.0281
vn -0.0047 -0.9717 -0.2363
vn 0.2593 0.9658 -0.0032
usemtl Material
s off
f 1/1/1 5/2/1 7/3/1 3/4/1
f 4/5/2 3/4/2 7/6/2 8/7/2
f 8/8/3 7/9/3 5/10/3 6/11/3
f 6/12/4 2/13/4 4/5/4 8/14/4
f 2/13/5 1/1/5 3/4/5 4/5/5
f 6/11/6 5/10/6 1/1/6 2/13/6
f 9/15/7 10/16/7 12/17/7 11/18/7
f 11/18/6 12/17/6 16/19/6 15/20/6
f 15/20/8 16/19/8 14/21/8 13/22/8
f 13/22/2 14/21/2 10/23/2 9/24/2
f 11/25/9 15/20/9 13/22/9 9/26/9
f 16/19/10 12/27/10 10/28/10 14/21/10
f 17/29/11 18/30/11 20/31/11 19/32/11
f 19/32/6 20/31/6 24/33/6 23/34/6
f 23/34/12 24/33/12 22/35/12 21/36/12
f 21/36/2 22/35/2 18/37/2 17/38/2
f 19/39/13 23/34/13 21/36/13 17/40/13
f 24/33/14 20/41/14 18/42/14 22/35/14
f 25/43/11 26/44/11 28/45/11 27/46/11
f 27/46/6 28/45/6 32/47/6 31/48/6
f 31/48/12 32/47/12 30/49/12 29/50/12
f 29/50/2 30/49/2 26/51/2 25/52/2
f 27/53/13 31/48/13 29/50/13 25/54/13
f 32/47/15 28/55/15 26/56/15 30/49/15
f 33/57/11 34/58/11 36/59/11 35/60/11
f 35/60/6 36/59/6 40/61/6 39/62/6
f 39/62/12 40/61/12 38/63/12 37/64/12
f 37/64/2 38/63/2 34/65/2 33/66/2
f 35/67/13 39/62/13 37/64/13 33/68/13
f 40/61/15 36/69/15 34/70/15 38/63/15
f 41/71/16 43/72/16 47/73/16 45/74/16
f 44/75/2 48/76/2 47/77/2 43/72/2
f 48/78/17 46/79/17 45/80/17 47/81/17
f 46/82/4 48/83/4 44/75/4 42/84/4
f 42/84/18 44/75/18 43/72/18 41/71/18
f 46/79/6 42/84/6 41/71/6 45/80/6
f 49/85/19 51/86/19 52/87/19 50/88/19
f 51/86/6 55/89/6 56/90/6 52/87/6
f 55/89/20 53/91/20 54/92/20 56/90/20
f 53/91/2 49/93/2 50/94/2 54/92/2
f 51/95/21 49/96/21 53/91/21 55/89/21
f 56/90/10 54/92/10 50/97/10 52/98/10
f 57/99/12 59/100/12 60/101/12 58/102/12
f 59/100/6 63/103/6 64/104/6 60/101/6
f 63/103/11 61/105/11 62/106/11 64/104/11
f 61/105/2 57/107/2 58/108/2 62/106/2
f 59/109/13 57/110/13 61/105/13 63/103/13
f 64/104/22 62/106/22 58/111/22 60/112/22
f 65/113/12 67/114/12 68/115/12 66/116/12
f 67/114/6 71/117/6 72/118/6 68/115/6
f 71/117/11 69/119/11 70/120/11 72/118/11
f 69/119/2 65/121/2 66/122/2 70/120/2
f 67/123/13 65/124/13 69/119/13 71/117/13
f 72/118/15 70/120/15 66/125/15 68/126/15
f 73/127/12 75/128/12 76/129/12 74/130/12
f 75/128/6 79/131/6 80/132/6 76/129/6
f 79/131/11 77/133/11 78/134/11 80/132/11
f 77/133/2 73/135/2 74/136/2 78/134/2
f 75/137/13 73/138/13 77/133/13 79/131/13
f 80/132/15 78/134/15 74/139/15 76/140/15
