# Blender v2.81 (sub 16) OBJ File: 'Gun4runner.blend'
# www.blender.org
mtllib Gun4runner.mtl
o Cube
v 1.000000 4.116152 -1.021876
v 1.000000 -0.668620 -0.507619
v 1.000000 4.116152 0.978124
v 1.000000 -0.668620 1.492380
v -1.000000 4.116152 -1.021876
v -1.000000 -0.668620 -0.507619
v -1.000000 4.116152 0.978124
v -1.000000 -0.668620 1.492380
v -0.773016 3.432307 1.004628
v -0.773016 4.087234 1.353555
v -1.041197 4.087234 1.347575
v -0.773016 5.046558 1.353555
v -0.773016 5.738307 1.062891
v -1.041197 5.046558 1.347575
v -0.773016 3.738307 -5.936735
v -1.012455 3.741825 -5.936735
v -0.773016 4.087234 -5.961060
v -0.773016 5.738307 -5.927211
v -0.773016 5.389380 -5.961060
v -1.012455 5.297071 -5.927211
v 0.790921 3.432307 1.004628
v 1.045356 4.087234 1.347575
v 0.790921 4.087234 1.353555
v 0.790921 5.738307 1.062891
v 0.790921 5.046558 1.353555
v 1.045356 5.046558 1.347575
v 0.790921 3.738307 -5.936735
v 0.790921 4.087234 -5.961060
v 0.998952 3.741825 -5.936735
v 0.790921 5.738307 -5.927211
v 0.998952 5.297071 -5.927211
v 0.790921 5.389380 -5.961060
v 0.013832 4.327188 -4.619444
v 0.013832 4.325853 -6.302155
v 0.104876 4.336155 -4.619471
v 0.104876 4.334820 -6.302183
v 0.192421 4.362712 -4.619553
v 0.192421 4.361377 -6.302264
v 0.273103 4.405837 -4.619685
v 0.273103 4.404502 -6.302397
v 0.343822 4.463874 -4.619863
v 0.343822 4.462539 -6.302574
v 0.401859 4.534593 -4.620080
v 0.401859 4.533257 -6.302792
v 0.444985 4.615274 -4.620327
v 0.444985 4.613940 -6.303039
v 0.471541 4.702819 -4.620595
v 0.471541 4.701485 -6.303307
v 0.480508 4.793864 -4.620874
v 0.480508 4.792529 -6.303586
v 0.471541 4.884907 -4.621153
v 0.471541 4.883573 -6.303864
v 0.444985 4.972453 -4.621421
v 0.444985 4.971118 -6.304133
v 0.401859 5.053135 -4.621669
v 0.401859 5.051800 -6.304380
v 0.343822 5.123853 -4.621885
v 0.343822 5.122518 -6.304597
v 0.273103 5.181890 -4.622063
v 0.273103 5.180555 -6.304775
v 0.192421 5.225016 -4.622196
v 0.192421 5.223681 -6.304908
v 0.104876 5.251573 -4.622277
v 0.104876 5.250237 -6.304989
v 0.013832 5.260540 -4.622304
v 0.013832 5.259204 -6.305017
v -0.077212 5.251573 -4.622277
v -0.077212 5.250237 -6.304989
v -0.164757 5.225016 -4.622196
v -0.164757 5.223680 -6.304908
v -0.245439 5.181890 -4.622063
v -0.245439 5.180555 -6.304775
v -0.316158 5.123853 -4.621885
v -0.316158 5.122518 -6.304597
v -0.374195 5.053134 -4.621669
v -0.374195 5.051799 -6.304380
v -0.417321 4.972453 -4.621421
v -0.417321 4.971117 -6.304133
v -0.443877 4.884907 -4.621153
v -0.443877 4.883573 -6.303864
v -0.452844 4.793863 -4.620874
v -0.452844 4.792528 -6.303586
v -0.443877 4.702819 -4.620595
v -0.443877 4.701484 -6.303307
v -0.417320 4.615274 -4.620327
v -0.417320 4.613939 -6.303039
v -0.374195 4.534592 -4.620080
v -0.374195 4.533257 -6.302792
v -0.316157 4.463874 -4.619863
v -0.316157 4.462539 -6.302574
v -0.245439 4.405837 -4.619685
v -0.245439 4.404502 -6.302397
v -0.164757 4.362711 -4.619553
v -0.164757 4.361376 -6.302264
v -0.077211 4.336155 -4.619471
v -0.077211 4.334820 -6.302183
v 0.139012 4.665972 -4.723495
v 0.151333 5.867778 -4.640583
v 0.139012 4.665972 -5.534275
v 0.151333 6.003850 -5.451363
v -0.158380 4.665972 -4.723495
v -0.146060 5.867778 -4.640583
v -0.158380 4.665972 -5.534275
v -0.146060 6.003850 -5.451363
v -0.234926 2.572174 -1.866776
v -0.234926 3.767262 -2.232057
v -0.234926 2.484178 -2.154673
v -0.234926 3.679266 -2.519954
v 0.209896 2.572174 -1.866776
v 0.209896 3.767262 -2.232057
v 0.209896 2.484178 -2.154673
v 0.209896 3.679266 -2.519954
v -0.216803 2.521330 -2.161992
v -0.216803 2.229748 -0.183361
v -0.216803 2.836494 -2.115548
v -0.216803 2.544913 -0.136917
v 0.218991 2.521330 -2.161992
v 0.218991 2.229748 -0.183361
v 0.218991 2.836494 -2.115548
v 0.218991 2.544913 -0.136917
vt 0.625000 0.500000
vt 0.875000 0.500000
vt 0.875000 0.750000
vt 0.625000 0.750000
vt 0.375000 0.750000
vt 0.625000 1.000000
vt 0.375000 1.000000
vt 0.375000 0.000000
vt 0.625000 0.000000
vt 0.625000 0.250000
vt 0.375000 0.250000
vt 0.125000 0.500000
vt 0.375000 0.500000
vt 0.125000 0.750000
vt 0.418616 0.793616
vt 0.581384 0.793616
vt 0.581384 0.956384
vt 0.418616 0.956384
vt 0.418616 0.509865
vt 0.581384 0.509865
vt 0.581384 0.740135
vt 0.418616 0.740135
vt 0.668616 0.509865
vt 0.831384 0.509865
vt 0.831384 0.740135
vt 0.668616 0.740135
vt 0.418616 0.009865
vt 0.581384 0.009865
vt 0.581384 0.240135
vt 0.418616 0.240135
vt 0.418616 0.293616
vt 0.581384 0.293616
vt 0.581384 0.456384
vt 0.418616 0.456384
vt 0.168616 0.740135
vt 0.168616 0.750000
vt 0.125000 0.740135
vt 0.625000 0.956384
vt 0.581384 1.000000
vt 0.168616 0.509865
vt 0.125000 0.509865
vt 0.168616 0.500000
vt 0.831384 0.500000
vt 0.875000 0.509865
vt 0.331384 0.740135
vt 0.375000 0.740135
vt 0.331384 0.750000
vt 0.668616 0.750000
vt 0.625000 0.740135
vt 0.331384 0.509865
vt 0.331384 0.500000
vt 0.375000 0.509865
vt 0.625000 0.509865
vt 0.668616 0.500000
vt 0.418616 1.000000
vt 0.875000 0.740135
vt 0.831384 0.750000
vt 1.000000 0.500000
vt 1.000000 1.000000
vt 0.968750 1.000000
vt 0.968750 0.500000
vt 0.937500 1.000000
vt 0.937500 0.500000
vt 0.906250 1.000000
vt 0.906250 0.500000
vt 0.875000 1.000000
vt 0.875000 0.500000
vt 0.843750 1.000000
vt 0.843750 0.500000
vt 0.812500 1.000000
vt 0.812500 0.500000
vt 0.781250 1.000000
vt 0.781250 0.500000
vt 0.750000 1.000000
vt 0.750000 0.500000
vt 0.718750 1.000000
vt 0.718750 0.500000
vt 0.687500 1.000000
vt 0.687500 0.500000
vt 0.656250 1.000000
vt 0.656250 0.500000
vt 0.625000 1.000000
vt 0.625000 0.500000
vt 0.593750 1.000000
vt 0.593750 0.500000
vt 0.562500 1.000000
vt 0.562500 0.500000
vt 0.531250 1.000000
vt 0.531250 0.500000
vt 0.500000 1.000000
vt 0.500000 0.500000
vt 0.468750 1.000000
vt 0.468750 0.500000
vt 0.437500 1.000000
vt 0.437500 0.500000
vt 0.406250 1.000000
vt 0.406250 0.500000
vt 0.375000 1.000000
vt 0.375000 0.500000
vt 0.343750 1.000000
vt 0.343750 0.500000
vt 0.312500 1.000000
vt 0.312500 0.500000
vt 0.281250 1.000000
vt 0.281250 0.500000
vt 0.250000 1.000000
vt 0.250000 0.500000
vt 0.218750 1.000000
vt 0.218750 0.500000
vt 0.187500 1.000000
vt 0.187500 0.500000
vt 0.156250 1.000000
vt 0.156250 0.500000
vt 0.125000 1.000000
vt 0.125000 0.500000
vt 0.093750 1.000000
vt 0.093750 0.500000
vt 0.062500 1.000000
vt 0.062500 0.500000
vt 0.296822 0.485388
vt 0.250000 0.490000
vt 0.203179 0.485389
vt 0.158156 0.471731
vt 0.116663 0.449553
vt 0.080295 0.419706
vt 0.050447 0.383337
vt 0.028269 0.341844
vt 0.014612 0.296822
vt 0.010000 0.250000
vt 0.014612 0.203179
vt 0.028269 0.158156
vt 0.050447 0.116663
vt 0.080294 0.080294
vt 0.116663 0.050447
vt 0.158156 0.028269
vt 0.203178 0.014612
vt 0.250000 0.010000
vt 0.296822 0.014612
vt 0.341844 0.028269
vt 0.383337 0.050447
vt 0.419706 0.080294
vt 0.449553 0.116663
vt 0.471731 0.158156
vt 0.485388 0.203178
vt 0.490000 0.250000
vt 0.485388 0.296822
vt 0.471731 0.341844
vt 0.449553 0.383337
vt 0.419706 0.419706
vt 0.383337 0.449553
vt 0.341844 0.471731
vt 0.031250 1.000000
vt 0.031250 0.500000
vt 0.000000 1.000000
vt 0.000000 0.500000
vt 0.750000 0.490000
vt 0.796822 0.485388
vt 0.841844 0.471731
vt 0.883337 0.449553
vt 0.919706 0.419706
vt 0.949553 0.383337
vt 0.971731 0.341844
vt 0.985388 0.296822
vt 0.990000 0.250000
vt 0.985388 0.203178
vt 0.971731 0.158156
vt 0.949553 0.116663
vt 0.919706 0.080294
vt 0.883337 0.050447
vt 0.841844 0.028269
vt 0.796822 0.014612
vt 0.750000 0.010000
vt 0.703178 0.014612
vt 0.658156 0.028269
vt 0.616663 0.050447
vt 0.580294 0.080294
vt 0.550447 0.116663
vt 0.528269 0.158156
vt 0.514611 0.203179
vt 0.510000 0.250000
vt 0.514612 0.296822
vt 0.528269 0.341844
vt 0.550447 0.383337
vt 0.580295 0.419706
vt 0.616663 0.449553
vt 0.658156 0.471731
vt 0.703179 0.485389
vt 0.375000 0.000000
vt 0.625000 0.000000
vt 0.625000 0.250000
vt 0.375000 0.250000
vt 0.625000 0.500000
vt 0.375000 0.500000
vt 0.625000 0.750000
vt 0.375000 0.750000
vt 0.625000 1.000000
vt 0.375000 1.000000
vt 0.125000 0.500000
vt 0.125000 0.750000
vt 0.875000 0.500000
vt 0.875000 0.750000
vt 0.375000 0.000000
vt 0.625000 0.000000
vt 0.625000 0.250000
vt 0.375000 0.250000
vt 0.625000 0.500000
vt 0.375000 0.500000
vt 0.625000 0.750000
vt 0.375000 0.750000
vt 0.625000 1.000000
vt 0.375000 1.000000
vt 0.125000 0.500000
vt 0.125000 0.750000
vt 0.875000 0.500000
vt 0.875000 0.750000
vt 0.375000 0.000000
vt 0.625000 0.000000
vt 0.625000 0.250000
vt 0.375000 0.250000
vt 0.625000 0.500000
vt 0.375000 0.500000
vt 0.625000 0.750000
vt 0.375000 0.750000
vt 0.625000 1.000000
vt 0.375000 1.000000
vt 0.125000 0.500000
vt 0.125000 0.750000
vt 0.875000 0.500000
vt 0.875000 0.750000
vn 0.0000 1.0000 0.0000
vn 0.0000 0.1069 0.9943
vn -1.0000 0.0000 0.0000
vn 0.0000 -1.0000 0.0000
vn 1.0000 -0.0000 0.0000
vn 0.0000 -0.1069 -0.9943
vn 0.0000 0.0000 1.0000
vn 1.0000 0.0000 -0.0064
vn -1.0000 0.0000 -0.0039
vn 0.0000 0.0000 -1.0000
vn -0.0197 -0.4701 0.8824
vn -0.0206 0.3873 0.9217
vn -0.0010 -0.0695 -0.9976
vn -0.1752 0.0951 -0.9799
vn 0.0207 -0.4701 0.8824
vn 0.0217 0.3873 0.9217
vn 0.0012 -0.0695 -0.9976
vn 0.2006 0.0946 -0.9751
vn -0.7919 -0.6106 0.0001
vn -0.0223 0.0000 0.9998
vn -0.9121 0.4100 0.0054
vn -0.1236 0.0033 -0.9923
vn 0.0000 -0.0695 -0.9976
vn 0.0000 0.0966 -0.9953
vn 0.1419 0.0033 -0.9899
vn 0.8186 -0.5744 -0.0011
vn 0.9255 0.3787 0.0036
vn 0.0235 0.0000 0.9997
vn 0.0000 -0.4702 0.8826
vn 0.0000 0.3874 0.9219
vn 0.0000 -0.9990 -0.0440
vn 0.0980 -0.9952 0.0008
vn 0.2903 -0.9569 0.0008
vn 0.4714 -0.8819 0.0007
vn 0.6344 -0.7730 0.0006
vn 0.7730 -0.6344 0.0005
vn 0.8819 -0.4714 0.0004
vn 0.9569 -0.2903 0.0002
vn 0.9952 -0.0980 0.0001
vn 0.9952 0.0980 -0.0001
vn 0.9569 0.2903 -0.0002
vn 0.8819 0.4714 -0.0004
vn 0.7730 0.6344 -0.0005
vn 0.6344 0.7730 -0.0006
vn 0.4714 0.8819 -0.0007
vn 0.2903 0.9569 -0.0008
vn 0.0980 0.9952 -0.0008
vn -0.0980 0.9952 -0.0008
vn -0.2903 0.9569 -0.0008
vn -0.4714 0.8819 -0.0007
vn -0.6344 0.7730 -0.0006
vn -0.7730 0.6344 -0.0005
vn -0.8819 0.4714 -0.0004
vn -0.9569 0.2903 -0.0002
vn -0.9952 0.0980 -0.0001
vn -0.9952 -0.0980 0.0001
vn -0.9569 -0.2903 0.0002
vn -0.8819 -0.4714 0.0004
vn -0.7730 -0.6344 0.0005
vn -0.6344 -0.7730 0.0006
vn -0.4714 -0.8819 0.0007
vn 0.0000 -0.0031 -1.0000
vn -0.2903 -0.9569 0.0008
vn -0.0980 -0.9952 0.0008
vn 0.0000 0.0031 1.0000
vn -1.0000 0.0096 0.0008
vn 0.0000 -0.0619 0.9981
vn 1.0000 -0.0096 -0.0008
vn 0.0000 0.0688 -0.9976
vn 0.0000 -0.9862 -0.1655
vn 0.0000 -0.2923 -0.9563
vn 0.0000 0.2923 0.9563
vn 0.0000 -0.9563 0.2923
vn 0.0000 0.9563 -0.2923
vn 0.0000 0.9893 0.1458
vn 0.0000 -0.9893 -0.1458
vn 0.0000 0.1458 -0.9893
vn 0.0000 -0.1458 0.9893
usemtl Material
s off
f 1/1/1 5/2/1 7/3/1 3/4/1
f 4/5/2 3/4/2 7/6/2 8/7/2
f 8/8/3 7/9/3 5/10/3 6/11/3
f 6/12/4 2/13/4 4/5/4 8/14/4
f 2/13/5 1/1/5 3/4/5 4/5/5
f 6/11/6 5/10/6 1/1/6 2/13/6
f 23/15/7 25/16/7 12/17/7 10/18/7
f 29/19/8 31/20/8 26/21/8 22/22/8
f 30/23/1 18/24/1 13/25/1 24/26/1
f 11/27/9 14/28/9 20/29/9 16/30/9
f 17/31/10 19/32/10 32/33/10 28/34/10
f 9/35/11 10/36/11 11/37/11
f 12/17/12 13/38/12 14/39/12
f 15/40/13 16/41/13 17/42/13
f 18/24/14 19/43/14 20/44/14
f 21/45/15 22/46/15 23/47/15
f 24/26/16 25/48/16 26/49/16
f 27/50/17 28/51/17 29/52/17
f 30/23/18 31/53/18 32/54/18
f 15/40/19 9/35/19 11/37/19 16/41/19
f 10/18/20 12/17/20 14/39/20 11/55/20
f 13/25/21 18/24/21 20/44/21 14/56/21
f 19/32/22 17/31/22 16/30/22 20/29/22
f 27/50/23 15/40/23 17/42/23 28/51/23
f 18/24/24 30/23/24 32/54/24 19/43/24
f 31/20/25 29/19/25 28/34/25 32/33/25
f 21/45/26 27/50/26 29/19/26 22/22/26
f 30/23/27 24/26/27 26/21/27 31/20/27
f 25/16/28 23/15/28 22/22/28 26/21/28
f 9/35/29 21/45/29 23/47/29 10/36/29
f 24/26/30 13/25/30 12/57/30 25/48/30
f 15/40/31 27/50/31 21/45/31 9/35/31
f 33/58/32 34/59/32 36/60/32 35/61/32
f 35/61/33 36/60/33 38/62/33 37/63/33
f 37/63/34 38/62/34 40/64/34 39/65/34
f 39/65/35 40/64/35 42/66/35 41/67/35
f 41/67/36 42/66/36 44/68/36 43/69/36
f 43/69/37 44/68/37 46/70/37 45/71/37
f 45/71/38 46/70/38 48/72/38 47/73/38
f 47/73/39 48/72/39 50/74/39 49/75/39
f 49/75/40 50/74/40 52/76/40 51/77/40
f 51/77/41 52/76/41 54/78/41 53/79/41
f 53/79/42 54/78/42 56/80/42 55/81/42
f 55/81/43 56/80/43 58/82/43 57/83/43
f 57/83/44 58/82/44 60/84/44 59/85/44
f 59/85/45 60/84/45 62/86/45 61/87/45
f 61/87/46 62/86/46 64/88/46 63/89/46
f 63/89/47 64/88/47 66/90/47 65/91/47
f 65/91/48 66/90/48 68/92/48 67/93/48
f 67/93/49 68/92/49 70/94/49 69/95/49
f 69/95/50 70/94/50 72/96/50 71/97/50
f 71/97/51 72/96/51 74/98/51 73/99/51
f 73/99/52 74/98/52 76/100/52 75/101/52
f 75/101/53 76/100/53 78/102/53 77/103/53
f 77/103/54 78/102/54 80/104/54 79/105/54
f 79/105/55 80/104/55 82/106/55 81/107/55
f 81/107/56 82/106/56 84/108/56 83/109/56
f 83/109/57 84/108/57 86/110/57 85/111/57
f 85/111/58 86/110/58 88/112/58 87/113/58
f 87/113/59 88/112/59 90/114/59 89/115/59
f 89/115/60 90/114/60 92/116/60 91/117/60
f 91/117/61 92/116/61 94/118/61 93/119/61
f 36/120/62 34/121/62 96/122/62 94/123/62 92/124/62 90/125/62 88/126/62 86/127/62 84/128/62 82/129/62 80/130/62 78/131/62 76/132/62 74/133/62 72/134/62 70/135/62 68/136/62 66/137/62 64/138/62 62/139/62 60/140/62 58/141/62 56/142/62 54/143/62 52/144/62 50/145/62 48/146/62 46/147/62 44/148/62 42/149/62 40/150/62 38/151/62
f 93/119/63 94/118/63 96/152/63 95/153/63
f 95/153/64 96/152/64 34/154/64 33/155/64
f 33/156/65 35/157/65 37/158/65 39/159/65 41/160/65 43/161/65 45/162/65 47/163/65 49/164/65 51/165/65 53/166/65 55/167/65 57/168/65 59/169/65 61/170/65 63/171/65 65/172/65 67/173/65 69/174/65 71/175/65 73/176/65 75/177/65 77/178/65 79/179/65 81/180/65 83/181/65 85/182/65 87/183/65 89/184/65 91/185/65 93/186/65 95/187/65
f 97/188/66 98/189/66 100/190/66 99/191/66
f 99/191/67 100/190/67 104/192/67 103/193/67
f 103/193/68 104/192/68 102/194/68 101/195/68
f 101/195/69 102/194/69 98/196/69 97/197/69
f 99/198/1 103/193/1 101/195/1 97/199/1
f 104/192/70 100/200/70 98/201/70 102/194/70
f 105/202/3 106/203/3 108/204/3 107/205/3
f 107/205/71 108/204/71 112/206/71 111/207/71
f 111/207/5 112/206/5 110/208/5 109/209/5
f 109/209/72 110/208/72 106/210/72 105/211/72
f 107/212/73 111/207/73 109/209/73 105/213/73
f 112/206/74 108/214/74 106/215/74 110/208/74
f 113/216/3 114/217/3 116/218/3 115/219/3
f 115/219/75 116/218/75 120/220/75 119/221/75
f 119/221/5 120/220/5 118/222/5 117/223/5
f 117/223/76 118/222/76 114/224/76 113/225/76
f 115/226/77 119/221/77 117/223/77 113/227/77
f 120/220/78 116/228/78 114/229/78 118/222/78
o Cube.001
v -0.144799 4.864842 -4.644717
v -0.145592 5.868738 -4.635773
v -0.144799 4.864842 -5.474004
v -0.145592 6.003947 -5.445924
v 0.138670 4.864842 -4.644717
v 0.153767 5.867218 -4.632340
v 0.138670 4.864842 -5.474004
v 0.153767 6.003947 -5.445924
vt 0.375000 0.000000
vt 0.625000 0.000000
vt 0.625000 0.250000
vt 0.375000 0.250000
vt 0.625000 0.500000
vt 0.375000 0.500000
vt 0.625000 0.750000
vt 0.375000 0.750000
vt 0.625000 1.000000
vt 0.375000 1.000000
vt 0.125000 0.500000
vt 0.125000 0.750000
vt 0.875000 0.500000
vt 0.875000 0.750000
vn -1.0000 -0.0007 -0.0001
vn 0.0000 0.0246 -0.9997
vn 0.9999 -0.0141 -0.0012
vn -0.0059 -0.0106 0.9999
vn 0.0000 -1.0000 0.0000
vn 0.0016 0.9863 0.1652
usemtl None
s off
f 121/230/79 122/231/79 124/232/79 123/233/79
f 123/233/80 124/232/80 128/234/80 127/235/80
f 127/235/81 128/234/81 126/236/81 125/237/81
f 125/237/82 126/236/82 122/238/82 121/239/82
f 123/240/83 127/235/83 125/237/83 121/241/83
f 128/234/84 124/242/84 122/243/84 126/236/84
